<svg width="216" height="61" viewBox="0 0 216 61" fill="none" xmlns="http://www.w3.org/2000/svg">
<g clip-path="url(#clip0_358_477)">
<path d="M121.546 32.9977H111.399C111.217 32.9977 111.069 32.8498 111.069 32.6677V24.8612C111.069 23.9854 110.469 23.2726 109.73 23.2726H106.394C105.655 23.2726 105.055 23.9854 105.055 24.8612V32.6677C105.055 32.8498 104.907 32.9977 104.725 32.9977H94.438C94.2558 32.9977 94.108 32.8498 94.108 32.6677V17.7121H93.7925C93.1497 17.7121 92.627 17.1339 92.627 16.4231V15.5862C92.627 14.9064 93.0909 14.249 93.6836 14.0887L107.062 10.4672C107.551 10.3359 108.374 10.3366 108.86 10.4686L122.217 14.0873C122.809 14.249 123.273 14.9071 123.273 15.5862V16.4231C123.273 17.1339 122.751 17.7121 122.108 17.7121H121.877V32.6677C121.876 32.8498 121.729 32.9977 121.546 32.9977ZM111.729 32.3377H121.216V17.3821C121.216 17.1999 121.364 17.0521 121.546 17.0521H122.108C122.382 17.0521 122.613 16.7636 122.613 16.4231V15.5862C122.613 15.21 122.347 14.8067 122.044 14.7242L108.687 11.1055C108.316 11.0058 107.607 11.0045 107.235 11.1041L93.8559 14.7256C93.5529 14.8074 93.287 15.2093 93.287 15.5862V16.4231C93.287 16.7643 93.5186 17.0521 93.7925 17.0521H94.438C94.6202 17.0521 94.768 17.1999 94.768 17.3821V32.3377H104.395V24.8612C104.395 23.621 105.292 22.6126 106.394 22.6126H109.73C110.832 22.6126 111.729 23.621 111.729 24.8612V32.3377Z" fill="black"/>
<path d="M122.15 16.6203C122.041 16.6203 121.952 16.5318 121.952 16.4223V15.5854C121.952 15.4877 121.875 15.3729 121.84 15.3485L121.021 15.13C120.916 15.1016 120.853 14.9927 120.882 14.8878C120.91 14.7822 121.018 14.7175 121.125 14.7485L121.975 14.9795C122.148 15.033 122.348 15.3141 122.348 15.5861V16.4229C122.348 16.5325 122.259 16.6203 122.15 16.6203Z" fill="black"/>
<path d="M119.971 14.8399C119.953 14.8399 119.936 14.8379 119.918 14.8333L118.703 14.5039C118.597 14.4749 118.535 14.366 118.564 14.261C118.592 14.1554 118.699 14.0941 118.806 14.1211L120.022 14.4505C120.128 14.4795 120.19 14.5884 120.161 14.6933C120.138 14.7818 120.058 14.8399 119.971 14.8399Z" fill="black"/>
<path d="M118.755 14.5103C118.737 14.5103 118.72 14.5084 118.702 14.5037L108.921 11.8525C108.815 11.8235 108.753 11.7146 108.781 11.6096C108.81 11.504 108.918 11.4413 109.024 11.4697L118.806 14.1209C118.912 14.15 118.974 14.2589 118.945 14.3638C118.922 14.4523 118.842 14.5103 118.755 14.5103Z" fill="black"/>
<path d="M120.754 32.0732H116.642C116.533 32.0732 116.444 31.9848 116.444 31.8752C116.444 31.7656 116.533 31.6772 116.642 31.6772H120.557V21.8181C120.557 21.7085 120.645 21.6201 120.755 21.6201C120.864 21.6201 120.953 21.7085 120.953 21.8181V31.8752C120.952 31.9854 120.864 32.0732 120.754 32.0732Z" fill="black"/>
<path d="M120.754 20.5058C120.644 20.5058 120.556 20.4174 120.556 20.3078V18.6453C120.556 18.5357 120.644 18.4473 120.754 18.4473C120.863 18.4473 120.952 18.5357 120.952 18.6453V20.3078C120.952 20.4174 120.863 20.5058 120.754 20.5058Z" fill="black"/>
<path d="M136.215 32.9979H128.432C128.25 32.9979 128.102 32.85 128.102 32.6679V26.6803C128.102 26.0507 127.676 25.5392 127.152 25.5392H124.594C124.199 25.5392 123.844 25.8547 123.71 26.3233C123.665 26.481 123.512 26.582 123.347 26.5589C123.184 26.5365 123.062 26.3965 123.062 26.2322V18.9847C123.062 18.8118 123.195 18.6686 123.367 18.6561C123.979 18.6085 124.459 18.0396 124.459 17.3611V16.9275C124.459 16.7784 124.559 16.6477 124.703 16.6094L125.086 16.5064C125.472 16.4022 126.118 16.4022 126.504 16.5064L136.75 19.2824C137.235 19.4144 137.616 19.9516 137.616 20.506V21.1482C137.616 21.7356 137.18 22.2135 136.645 22.2135H136.544V32.6698C136.545 32.85 136.397 32.9979 136.215 32.9979ZM128.762 32.3379H135.885V21.8815C135.885 21.6993 136.033 21.5515 136.215 21.5515H136.645C136.814 21.5515 136.956 21.366 136.956 21.1462V20.504C136.956 20.2275 136.756 19.9662 136.577 19.9173L126.331 17.1413C126.06 17.0681 125.53 17.0681 125.258 17.1413L125.119 17.179V17.3598C125.119 18.27 124.526 19.0501 123.723 19.2613V25.1736C123.975 24.9855 124.276 24.8785 124.594 24.8785H127.152C128.04 24.8785 128.762 25.687 128.762 26.6797V32.3379Z" fill="black"/>
<path d="M136.494 21.2872C136.385 21.2872 136.296 21.1988 136.296 21.0892V20.5256L130.065 18.8367C129.959 18.8076 129.897 18.6987 129.926 18.5938C129.954 18.4882 130.063 18.4261 130.169 18.4539L136.509 20.1725C136.581 20.1923 136.636 20.251 136.651 20.3243C136.651 20.3256 136.651 20.3269 136.651 20.3283C136.67 20.3784 136.692 20.4391 136.692 20.5045V21.0899C136.692 21.1988 136.604 21.2872 136.494 21.2872Z" fill="black"/>
<path d="M128.692 18.4572C128.675 18.4572 128.658 18.4553 128.64 18.4506L127.06 18.023C126.955 17.9939 126.893 17.885 126.921 17.7801C126.949 17.6745 127.058 17.6131 127.164 17.6402L128.744 18.0678C128.849 18.0969 128.911 18.2058 128.883 18.3107C128.859 18.3992 128.779 18.4572 128.692 18.4572Z" fill="black"/>
<path d="M135.424 32.0732H133.551C133.441 32.0732 133.353 31.9847 133.353 31.8752C133.353 31.7656 133.441 31.6772 133.551 31.6772H135.226V26.1721C135.226 26.0626 135.314 25.9741 135.424 25.9741C135.533 25.9741 135.622 26.0626 135.622 26.1721V31.8752C135.622 31.9854 135.533 32.0732 135.424 32.0732Z" fill="black"/>
<path d="M135.424 25.106C135.314 25.106 135.226 25.0175 135.226 24.908V23.6975C135.226 23.588 135.314 23.4995 135.424 23.4995C135.533 23.4995 135.622 23.588 135.622 23.6975V24.908C135.622 25.0175 135.532 25.106 135.424 25.106Z" fill="black"/>
<path d="M87.3997 32.9979H79.617C79.4348 32.9979 79.287 32.85 79.287 32.6679V22.2115H79.1867C78.6514 22.2115 78.2158 21.733 78.2158 21.1463V20.5041C78.2158 19.9497 78.596 19.4131 79.0817 19.2804L89.3276 16.5045C89.713 16.4002 90.3592 16.4002 90.7453 16.5045L91.1281 16.6074C91.2719 16.6464 91.3723 16.7771 91.3723 16.9256V17.3592C91.3723 18.0377 91.8521 18.6066 92.4646 18.6541C92.6362 18.6673 92.7688 18.8099 92.7688 18.9828V26.2302C92.7688 26.3946 92.6474 26.5345 92.4844 26.5569C92.3207 26.5794 92.1669 26.4791 92.1214 26.3213C91.9874 25.8527 91.6323 25.5372 91.2376 25.5372H88.6795C88.1554 25.5372 87.7291 26.0487 87.7291 26.6784V32.6659C87.7297 32.85 87.5819 32.9979 87.3997 32.9979ZM79.947 32.3379H87.0697V26.6804C87.0697 25.6871 87.7924 24.8792 88.6801 24.8792H91.2383C91.5557 24.8792 91.8567 24.9861 92.1095 25.1742V19.262C91.3056 19.0508 90.7129 18.2706 90.7129 17.3605V17.1797L90.5743 17.142C90.3011 17.0694 89.7724 17.0694 89.5005 17.142L79.2553 19.918C79.0765 19.9662 78.8765 20.2282 78.8765 20.5047V21.1469C78.8765 21.3667 79.0184 21.5522 79.1873 21.5522H79.6177C79.7998 21.5522 79.9477 21.7 79.9477 21.8822L79.947 32.3379Z" fill="black"/>
<path d="M86.6081 32.073H84.8611C84.7515 32.073 84.6631 31.9845 84.6631 31.875C84.6631 31.7654 84.7515 31.677 84.8611 31.677H86.4101V29.6165C86.4101 29.5069 86.4985 29.4185 86.6081 29.4185C86.7177 29.4185 86.8061 29.5069 86.8061 29.6165V31.875C86.8061 31.9852 86.717 32.073 86.6081 32.073Z" fill="black"/>
<path d="M86.6082 28.7919C86.4986 28.7919 86.4102 28.7035 86.4102 28.594V27.9016C86.4102 27.792 86.4986 27.7036 86.6082 27.7036C86.7177 27.7036 86.8062 27.792 86.8062 27.9016V28.594C86.8062 28.7035 86.7171 28.7919 86.6082 28.7919Z" fill="black"/>
<path d="M91.6475 24.6592C91.633 24.6592 91.6184 24.6579 91.6046 24.6546C91.4851 24.6275 91.3617 24.6136 91.2389 24.6136H88.9177C88.8082 24.6136 88.7197 24.5252 88.7197 24.4156C88.7197 24.3061 88.8082 24.2176 88.9177 24.2176H91.2389C91.3096 24.2176 91.3795 24.2209 91.4502 24.2282V22.0627C91.4502 21.9532 91.5386 21.8647 91.6482 21.8647C91.7577 21.8647 91.8461 21.9532 91.8461 22.0627V24.4612C91.8461 24.5212 91.8191 24.578 91.7722 24.6156C91.7359 24.6447 91.6924 24.6592 91.6475 24.6592Z" fill="black"/>
<path d="M121.547 17.2685H94.4384C94.3474 17.2685 94.2734 17.1946 94.2734 17.1035C94.2734 17.0124 94.3474 16.9385 94.4384 16.9385H121.547C121.638 16.9385 121.712 17.0124 121.712 17.1035C121.712 17.1946 121.638 17.2685 121.547 17.2685Z" fill="black"/>
<path d="M92.4396 21.7328H79.6171C79.5261 21.7328 79.4521 21.6589 79.4521 21.5678C79.4521 21.4768 79.5261 21.4028 79.6171 21.4028H92.4396C92.5307 21.4028 92.6046 21.4768 92.6046 21.5678C92.6046 21.6589 92.5307 21.7328 92.4396 21.7328Z" fill="black"/>
<path d="M136.215 21.7328H123.393C123.301 21.7328 123.228 21.6589 123.228 21.5678C123.228 21.4768 123.301 21.4028 123.393 21.4028H136.215C136.306 21.4028 136.38 21.4768 136.38 21.5678C136.38 21.6589 136.306 21.7328 136.215 21.7328Z" fill="black"/>
<path d="M93.2979 41H122.438" stroke="black" stroke-linecap="round"/>
<path d="M6.24 60.95C4.99333 60.95 3.79667 60.75 2.65 60.35C1.51 59.95 0.626667 59.4233 0 58.77L0.7 57.4C1.30667 58.0067 2.11333 58.5 3.12 58.88C4.12667 59.2533 5.16667 59.44 6.24 59.44C7.74667 59.44 8.87333 59.1633 9.62 58.61C10.3733 58.0567 10.75 57.34 10.75 56.46C10.75 55.7933 10.5467 55.26 10.14 54.86C9.73333 54.46 9.23333 54.15 8.64 53.93C8.04667 53.7167 7.22333 53.48 6.17 53.22C4.90333 52.9 3.89333 52.5933 3.14 52.3C2.39333 52.0067 1.75 51.5533 1.21 50.94C0.676667 50.3333 0.41 49.51 0.41 48.47C0.41 47.6233 0.633333 46.8533 1.08 46.16C1.52667 45.46 2.21333 44.9033 3.14 44.49C4.07333 44.07 5.22667 43.86 6.6 43.86C7.56 43.86 8.5 43.9933 9.42 44.26C10.34 44.5267 11.1367 44.89 11.81 45.35L11.21 46.77C10.5033 46.3033 9.75 45.9533 8.95 45.72C8.15 45.4933 7.36667 45.38 6.6 45.38C5.12667 45.38 4.02 45.6633 3.28 46.23C2.53333 46.7967 2.16 47.5267 2.16 48.42C2.16 49.0933 2.36333 49.6333 2.77 50.04C3.17667 50.4533 3.69 50.7667 4.31 50.98C4.92333 51.1933 5.75 51.43 6.79 51.69C8.02333 51.99 9.02 52.29 9.78 52.59C10.54 52.8833 11.1833 53.33 11.71 53.93C12.2367 54.53 12.5 55.3433 12.5 56.37C12.5 57.2167 12.2733 57.9867 11.82 58.68C11.3667 59.38 10.6667 59.9333 9.72 60.34C8.77333 60.7467 7.61333 60.95 6.24 60.95ZM25.82 48.18H27.53V60.81H25.9V58.31C25.3867 59.1567 24.71 59.8067 23.87 60.26C23.03 60.7067 22.08 60.93 21.02 60.93C19.84 60.93 18.77 60.6567 17.81 60.11C16.85 59.57 16.0967 58.81 15.55 57.83C15.01 56.8567 14.74 55.7467 14.74 54.5C14.74 53.2467 15.01 52.1333 15.55 51.16C16.0967 50.1867 16.85 49.43 17.81 48.89C18.77 48.3567 19.84 48.09 21.02 48.09C22.0467 48.09 22.9733 48.3 23.8 48.72C24.62 49.1467 25.2933 49.7667 25.82 50.58V48.18ZM21.17 59.42C22.05 59.42 22.8467 59.2133 23.56 58.8C24.2667 58.3933 24.8267 57.8133 25.24 57.06C25.6467 56.3133 25.85 55.46 25.85 54.5C25.85 53.54 25.6467 52.6833 25.24 51.93C24.8267 51.1767 24.2667 50.5967 23.56 50.19C22.8467 49.7833 22.05 49.58 21.17 49.58C20.27 49.58 19.4667 49.7833 18.76 50.19C18.0467 50.5967 17.4867 51.1767 17.08 51.93C16.6667 52.6833 16.46 53.54 16.46 54.5C16.46 55.46 16.6667 56.3133 17.08 57.06C17.4867 57.8133 18.0467 58.3933 18.76 58.8C19.4667 59.2133 20.27 59.42 21.17 59.42ZM32.28 60.81V48.18H33.98V60.81H32.28ZM33.14 45.42C32.7933 45.42 32.5 45.3 32.26 45.06C32.02 44.82 31.9 44.5333 31.9 44.2C31.9 43.88 32.02 43.6 32.26 43.36C32.5 43.12 32.7933 43 33.14 43C33.4933 43 33.79 43.1167 34.03 43.35C34.27 43.5833 34.39 43.86 34.39 44.18C34.39 44.5267 34.27 44.82 34.03 45.06C33.79 45.3 33.4933 45.42 33.14 45.42ZM42.29 60.93C41.15 60.93 40.2733 60.61 39.66 59.97C39.0467 59.33 38.74 58.44 38.74 57.3V43H40.44V57.16C40.44 57.9133 40.6167 58.4867 40.97 58.88C41.3233 59.2667 41.85 59.46 42.55 59.46C42.9967 59.46 43.38 59.39 43.7 59.25L43.82 60.66C43.3267 60.84 42.8167 60.93 42.29 60.93ZM51.31 59.42C52.0967 59.42 52.82 59.28 53.48 59C54.1467 58.72 54.7133 58.3067 55.18 57.76L56.14 58.86C55.58 59.5333 54.8833 60.0467 54.05 60.4C53.2167 60.7533 52.2967 60.93 51.29 60.93C49.99 60.93 48.8367 60.6533 47.83 60.1C46.8233 59.5467 46.04 58.7833 45.48 57.81C44.92 56.83 44.64 55.7267 44.64 54.5C44.64 53.2667 44.9067 52.16 45.44 51.18C45.98 50.2067 46.72 49.4467 47.66 48.9C48.6067 48.36 49.68 48.09 50.88 48.09C52 48.09 53.0133 48.3467 53.92 48.86C54.82 49.3667 55.54 50.0767 56.08 50.99C56.6133 51.9033 56.8967 52.9433 56.93 54.11L46.56 56.13C46.88 57.15 47.46 57.9533 48.3 58.54C49.14 59.1267 50.1433 59.42 51.31 59.42ZM50.88 49.55C50 49.55 49.2133 49.7533 48.52 50.16C47.82 50.5733 47.2733 51.1433 46.88 51.87C46.4933 52.5967 46.3 53.4333 46.3 54.38C46.3 54.62 46.3067 54.7933 46.32 54.9L55.22 53.18C55.0333 52.12 54.5467 51.25 53.76 50.57C52.9733 49.89 52.0133 49.55 50.88 49.55ZM62.04 50.66C62.44 49.8067 63.0367 49.1667 63.83 48.74C64.6233 48.3067 65.6033 48.09 66.77 48.09V49.74L66.36 49.72C65.0333 49.72 63.9933 50.1267 63.24 50.94C62.4867 51.76 62.11 52.9067 62.11 54.38V60.81H60.41V48.18H62.04V50.66ZM83.57 45.54H80.16V59.27H83.57V60.81H75V59.27H78.41V45.54H75V44.01H83.57V45.54ZM102.74 48.09C104.327 48.09 105.573 48.5467 106.48 49.46C107.38 50.3667 107.83 51.71 107.83 53.49V60.81H106.13V53.66C106.13 52.3467 105.813 51.3467 105.18 50.66C104.547 49.9667 103.653 49.62 102.5 49.62C101.193 49.62 100.163 50.0267 99.41 50.84C98.6567 51.6467 98.28 52.76 98.28 54.18V60.81H96.58V53.66C96.58 52.3467 96.2633 51.3467 95.63 50.66C94.9967 49.9667 94.0967 49.62 92.93 49.62C91.63 49.62 90.6 50.0267 89.84 50.84C89.08 51.6467 88.7 52.76 88.7 54.18V60.81H87V48.18H88.63V50.49C89.0767 49.7233 89.7 49.13 90.5 48.71C91.3 48.2967 92.22 48.09 93.26 48.09C94.32 48.09 95.2367 48.3133 96.01 48.76C96.79 49.2067 97.37 49.87 97.75 50.75C98.2167 49.9167 98.8867 49.2667 99.76 48.8C100.627 48.3267 101.62 48.09 102.74 48.09ZM128.21 48.09C129.79 48.09 131.033 48.5467 131.94 49.46C132.847 50.3667 133.3 51.71 133.3 53.49V60.81H131.59V53.66C131.59 52.3467 131.273 51.3467 130.64 50.66C130.013 49.9667 129.123 49.62 127.97 49.62C126.657 49.62 125.623 50.0267 124.87 50.84C124.117 51.6467 123.74 52.76 123.74 54.18V60.81H122.04V53.66C122.04 52.3467 121.723 51.3467 121.09 50.66C120.457 49.9667 119.557 49.62 118.39 49.62C117.097 49.62 116.07 50.0267 115.31 50.84C114.55 51.6467 114.17 52.76 114.17 54.18V60.81H112.46V48.18H114.1V50.49C114.547 49.7233 115.17 49.13 115.97 48.71C116.77 48.2967 117.69 48.09 118.73 48.09C119.783 48.09 120.7 48.3133 121.48 48.76C122.253 49.2067 122.833 49.87 123.22 50.75C123.68 49.9167 124.347 49.2667 125.22 48.8C126.093 48.3267 127.09 48.09 128.21 48.09ZM143.14 60.93C141.92 60.93 140.823 60.6533 139.85 60.1C138.87 59.5467 138.1 58.7833 137.54 57.81C136.98 56.83 136.7 55.7267 136.7 54.5C136.7 53.2667 136.98 52.16 137.54 51.18C138.1 50.2067 138.87 49.4467 139.85 48.9C140.823 48.36 141.92 48.09 143.14 48.09C144.353 48.09 145.447 48.36 146.42 48.9C147.4 49.4467 148.167 50.2067 148.72 51.18C149.267 52.16 149.54 53.2667 149.54 54.5C149.54 55.7267 149.267 56.83 148.72 57.81C148.167 58.7833 147.4 59.5467 146.42 60.1C145.447 60.6533 144.353 60.93 143.14 60.93ZM143.14 59.42C144.033 59.42 144.837 59.2133 145.55 58.8C146.263 58.3933 146.82 57.8133 147.22 57.06C147.62 56.3133 147.82 55.46 147.82 54.5C147.82 53.54 147.62 52.6833 147.22 51.93C146.82 51.1767 146.263 50.5967 145.55 50.19C144.837 49.7833 144.033 49.58 143.14 49.58C142.24 49.58 141.433 49.7833 140.72 50.19C140.013 50.5967 139.453 51.1767 139.04 51.93C138.633 52.6833 138.43 53.54 138.43 54.5C138.43 55.46 138.633 56.3133 139.04 57.06C139.453 57.8133 140.013 58.3933 140.72 58.8C141.433 59.2133 142.24 59.42 143.14 59.42ZM159.53 48.09C160.71 48.09 161.78 48.3567 162.74 48.89C163.7 49.43 164.453 50.1867 165 51.16C165.547 52.1333 165.82 53.2467 165.82 54.5C165.82 55.7467 165.547 56.8567 165 57.83C164.453 58.81 163.7 59.57 162.74 60.11C161.78 60.6567 160.71 60.93 159.53 60.93C158.47 60.93 157.52 60.7067 156.68 60.26C155.84 59.8067 155.167 59.1567 154.66 58.31V60.81H153.02V43H154.73V50.58C155.257 49.7667 155.933 49.1467 156.76 48.72C157.58 48.3 158.503 48.09 159.53 48.09ZM159.41 59.42C160.29 59.42 161.09 59.2133 161.81 58.8C162.53 58.3933 163.093 57.8133 163.5 57.06C163.907 56.3133 164.11 55.46 164.11 54.5C164.11 53.54 163.907 52.6833 163.5 51.93C163.093 51.1767 162.53 50.5967 161.81 50.19C161.09 49.7833 160.29 49.58 159.41 49.58C158.51 49.58 157.707 49.7833 157 50.19C156.287 50.5967 155.727 51.1767 155.32 51.93C154.907 52.6833 154.7 53.54 154.7 54.5C154.7 55.46 154.907 56.3133 155.32 57.06C155.727 57.8133 156.287 58.3933 157 58.8C157.707 59.2133 158.51 59.42 159.41 59.42ZM169.3 60.81V48.18H171V60.81H169.3ZM170.16 45.42C169.807 45.42 169.51 45.3 169.27 45.06C169.03 44.82 168.91 44.5333 168.91 44.2C168.91 43.88 169.03 43.6 169.27 43.36C169.51 43.12 169.807 43 170.16 43C170.513 43 170.81 43.1167 171.05 43.35C171.29 43.5833 171.41 43.86 171.41 44.18C171.41 44.5267 171.29 44.82 171.05 45.06C170.81 45.3 170.513 45.42 170.16 45.42ZM179.3 60.93C178.167 60.93 177.293 60.61 176.68 59.97C176.06 59.33 175.75 58.44 175.75 57.3V43H177.46V57.16C177.46 57.9133 177.633 58.4867 177.98 58.88C178.333 59.2667 178.863 59.46 179.57 59.46C180.017 59.46 180.4 59.39 180.72 59.25L180.84 60.66C180.347 60.84 179.833 60.93 179.3 60.93ZM183.17 60.81V48.18H184.87V60.81H183.17ZM184.03 45.42C183.677 45.42 183.38 45.3 183.14 45.06C182.9 44.82 182.78 44.5333 182.78 44.2C182.78 43.88 182.9 43.6 183.14 43.36C183.38 43.12 183.677 43 184.03 43C184.383 43 184.68 43.1167 184.92 43.35C185.16 43.5833 185.28 43.86 185.28 44.18C185.28 44.5267 185.16 44.82 184.92 45.06C184.68 45.3 184.383 45.42 184.03 45.42ZM195.02 59.42C195.807 59.42 196.533 59.28 197.2 59C197.86 58.72 198.423 58.3067 198.89 57.76L199.85 58.86C199.29 59.5333 198.593 60.0467 197.76 60.4C196.927 60.7533 196.007 60.93 195 60.93C193.707 60.93 192.553 60.6533 191.54 60.1C190.533 59.5467 189.75 58.7833 189.19 57.81C188.63 56.83 188.35 55.7267 188.35 54.5C188.35 53.2667 188.62 52.16 189.16 51.18C189.693 50.2067 190.433 49.4467 191.38 48.9C192.32 48.36 193.39 48.09 194.59 48.09C195.71 48.09 196.723 48.3467 197.63 48.86C198.53 49.3667 199.25 50.0767 199.79 50.99C200.323 51.9033 200.607 52.9433 200.64 54.11L190.27 56.13C190.59 57.15 191.17 57.9533 192.01 58.54C192.85 59.1267 193.853 59.42 195.02 59.42ZM194.59 49.55C193.71 49.55 192.923 49.7533 192.23 50.16C191.53 50.5733 190.987 51.1433 190.6 51.87C190.207 52.5967 190.01 53.4333 190.01 54.38C190.01 54.62 190.017 54.7933 190.03 54.9L198.94 53.18C198.747 52.12 198.257 51.25 197.47 50.57C196.69 49.89 195.73 49.55 194.59 49.55ZM210.55 48.09C212.137 48.09 213.397 48.55 214.33 49.47C215.27 50.39 215.74 51.73 215.74 53.49V60.81H214.03V53.66C214.03 52.3467 213.703 51.3467 213.05 50.66C212.39 49.9667 211.453 49.62 210.24 49.62C208.88 49.62 207.803 50.0267 207.01 50.84C206.217 51.6467 205.82 52.76 205.82 54.18V60.81H204.12V48.18H205.75V50.51C206.217 49.7433 206.86 49.1467 207.68 48.72C208.507 48.3 209.463 48.09 210.55 48.09Z" fill="black"/>
</g>
<defs>
<clipPath id="clip0_358_477">
<rect width="216" height="61" fill="white"/>
</clipPath>
</defs>
</svg>
