<svg width="216" height="61" fill="none" xmlns="http://www.w3.org/2000/svg"><g clip-path="url(#a)"><path d="M121.546 32.998h-10.147a.33.33 0 0 1-.33-.33V24.86c0-.876-.6-1.588-1.339-1.588h-3.336c-.739 0-1.339.712-1.339 1.588v7.807a.33.33 0 0 1-.33.33H94.438a.33.33 0 0 1-.33-.33V17.712h-.316c-.642 0-1.165-.578-1.165-1.289v-.837c0-.68.464-1.337 1.057-1.497l13.378-3.622c.489-.131 1.312-.13 1.798.002l13.357 3.618c.592.162 1.056.82 1.056 1.5v.836c0 .71-.522 1.29-1.165 1.29h-.231v14.955a.331.331 0 0 1-.331.33Zm-9.817-.66h9.487V17.382a.33.33 0 0 1 .33-.33h.562c.274 0 .505-.288.505-.629v-.837c0-.376-.266-.78-.569-.862l-13.357-3.619c-.371-.1-1.08-.1-1.452 0l-13.38 3.62c-.302.082-.568.484-.568.861v.837c0 .341.232.63.505.63h.646a.33.33 0 0 1 .33.33v14.955h9.627V24.86c0-1.24.897-2.248 1.999-2.248h3.336c1.102 0 1.999 1.008 1.999 2.248v7.477Z" fill="#FFFDFD"/><path d="M122.15 16.62a.198.198 0 0 1-.198-.198v-.837a.368.368 0 0 0-.112-.237l-.819-.218a.197.197 0 0 1-.139-.242.195.195 0 0 1 .243-.14l.85.232c.173.053.373.334.373.606v.837c0 .11-.089.197-.198.197ZM119.971 14.84a.21.21 0 0 1-.053-.007l-1.215-.33a.198.198 0 0 1-.139-.242.198.198 0 0 1 .242-.14l1.216.33a.198.198 0 0 1 .139.242.196.196 0 0 1-.19.147Z" fill="#FFFDFD"/><path d="M118.755 14.51a.205.205 0 0 1-.053-.006l-9.781-2.652a.199.199 0 0 1 .103-.383l9.782 2.652c.106.029.168.138.139.243a.196.196 0 0 1-.19.146ZM120.754 32.073h-4.112a.198.198 0 0 1 0-.396h3.915v-9.859a.198.198 0 0 1 .396 0v10.057a.199.199 0 0 1-.199.198ZM120.754 20.506a.197.197 0 0 1-.198-.198v-1.663a.198.198 0 0 1 .396 0v1.663c0 .11-.089.198-.198.198ZM136.215 32.998h-7.783a.33.33 0 0 1-.33-.33V26.68c0-.63-.426-1.14-.95-1.14h-2.558c-.395 0-.75.315-.884.783a.33.33 0 0 1-.648-.091v-7.247c0-.173.133-.316.305-.329.612-.047 1.092-.616 1.092-1.295v-.434c0-.149.1-.28.244-.318l.383-.103c.386-.104 1.032-.104 1.418 0l10.246 2.776c.485.132.866.67.866 1.224v.642c0 .588-.436 1.066-.971 1.066h-.101V32.67a.328.328 0 0 1-.329.328Zm-7.453-.66h7.123V21.88a.33.33 0 0 1 .33-.33h.43c.169 0 .311-.185.311-.405v-.642c0-.277-.2-.538-.379-.587l-10.246-2.776a2.649 2.649 0 0 0-1.073 0l-.139.038v.18c0 .911-.593 1.691-1.396 1.902v5.913c.252-.189.553-.296.871-.296h2.558c.888 0 1.61.809 1.61 1.802v5.658Z" fill="#FFFDFD"/><path d="M136.494 21.287a.198.198 0 0 1-.198-.198v-.563l-6.231-1.69a.199.199 0 0 1 .104-.383l6.34 1.72c.072.02.127.078.142.151v.004a.5.5 0 0 1 .041.177v.585a.197.197 0 0 1-.198.197ZM128.692 18.457a.203.203 0 0 1-.052-.006l-1.58-.428a.2.2 0 0 1-.139-.243.2.2 0 0 1 .243-.14l1.58.428a.198.198 0 0 1-.052.39ZM135.424 32.073h-1.873a.197.197 0 0 1-.198-.198c0-.11.088-.198.198-.198h1.675v-5.505a.198.198 0 0 1 .396 0v5.703c0 .11-.089.198-.198.198ZM135.424 25.106a.197.197 0 0 1-.198-.198v-1.21a.198.198 0 0 1 .396 0v1.21c0 .11-.09.198-.198.198ZM87.4 32.998h-7.783a.33.33 0 0 1-.33-.33V22.212h-.1c-.536 0-.971-.479-.971-1.066v-.642c0-.554.38-1.09.866-1.224l10.246-2.776c.385-.104 1.031-.104 1.417 0l.383.103a.33.33 0 0 1 .244.319v.433c0 .679.48 1.248 1.093 1.295a.33.33 0 0 1 .304.329v7.247a.33.33 0 0 1-.648.091c-.134-.468-.489-.784-.883-.784H88.68c-.525 0-.95.512-.95 1.141v5.988a.33.33 0 0 1-.33.332Zm-7.453-.66h7.123V26.68c0-.993.722-1.8 1.61-1.8h2.558c.318 0 .619.106.871.294v-5.912c-.803-.211-1.396-.991-1.396-1.902v-.18l-.139-.038a2.674 2.674 0 0 0-1.073 0l-10.246 2.776c-.178.048-.379.31-.379.587v.642c0 .22.142.405.311.405h.43a.33.33 0 0 1 .33.33v10.456Z" fill="#FFFDFD"/><path d="M86.608 32.073h-1.747a.198.198 0 1 1 0-.396h1.55v-2.06a.198.198 0 1 1 .395 0v2.258c0 .11-.089.198-.198.198ZM86.608 28.792a.198.198 0 0 1-.198-.198v-.692a.198.198 0 1 1 .396 0v.692c0 .11-.089.198-.198.198ZM91.647 24.66a.186.186 0 0 1-.042-.005 1.659 1.659 0 0 0-.366-.041h-2.321a.198.198 0 1 1 0-.396h2.32c.072 0 .141.003.212.01v-2.165a.198.198 0 1 1 .396 0v2.398a.198.198 0 0 1-.199.198ZM121.547 17.268H94.438a.165.165 0 0 1 0-.33h27.109a.165.165 0 0 1 0 .33ZM92.44 21.733H79.617a.165.165 0 0 1 0-.33H92.44a.165.165 0 0 1 0 .33ZM136.215 21.733h-12.822a.164.164 0 0 1-.165-.165c0-.091.073-.165.165-.165h12.822a.165.165 0 0 1 0 .33Z" fill="#FFFDFD"/><path d="M93.298 41h29.14" stroke="snow" stroke-linecap="round"/><path d="M6.24 60.95c-1.247 0-2.443-.2-3.59-.6-1.14-.4-2.023-.927-2.65-1.58l.7-1.37c.607.607 1.413 1.1 2.42 1.48a8.904 8.904 0 0 0 3.12.56c1.507 0 2.633-.277 3.38-.83.753-.553 1.13-1.27 1.13-2.15 0-.667-.203-1.2-.61-1.6-.407-.4-.907-.71-1.5-.93-.593-.213-1.417-.45-2.47-.71-1.267-.32-2.277-.627-3.03-.92a4.953 4.953 0 0 1-1.93-1.36c-.533-.607-.8-1.43-.8-2.47 0-.847.223-1.617.67-2.31.447-.7 1.133-1.257 2.06-1.67.933-.42 2.087-.63 3.46-.63.96 0 1.9.133 2.82.4.92.267 1.717.63 2.39 1.09l-.6 1.42a8.295 8.295 0 0 0-2.26-1.05 8.596 8.596 0 0 0-2.35-.34c-1.473 0-2.58.283-3.32.85-.747.567-1.12 1.297-1.12 2.19 0 .673.203 1.213.61 1.62.407.413.92.727 1.54.94.613.213 1.44.45 2.48.71 1.233.3 2.23.6 2.99.9.76.293 1.403.74 1.93 1.34.527.6.79 1.413.79 2.44 0 .847-.227 1.617-.68 2.31-.453.7-1.153 1.253-2.1 1.66-.947.407-2.107.61-3.48.61Zm19.58-12.77h1.71v12.63H25.9v-2.5a5.274 5.274 0 0 1-2.03 1.95c-.84.447-1.79.67-2.85.67-1.18 0-2.25-.273-3.21-.82a5.807 5.807 0 0 1-2.26-2.28c-.54-.973-.81-2.083-.81-3.33 0-1.253.27-2.367.81-3.34a5.826 5.826 0 0 1 2.26-2.27c.96-.533 2.03-.8 3.21-.8 1.027 0 1.953.21 2.78.63a5.293 5.293 0 0 1 2.02 1.86v-2.4Zm-4.65 11.24c.88 0 1.677-.207 2.39-.62a4.4 4.4 0 0 0 1.68-1.74c.407-.747.61-1.6.61-2.56s-.203-1.817-.61-2.57a4.4 4.4 0 0 0-1.68-1.74c-.713-.407-1.51-.61-2.39-.61-.9 0-1.703.203-2.41.61a4.313 4.313 0 0 0-1.68 1.74c-.413.753-.62 1.61-.62 2.57 0 .96.207 1.813.62 2.56a4.313 4.313 0 0 0 1.68 1.74c.707.413 1.51.62 2.41.62Zm11.11 1.39V48.18h1.7v12.63h-1.7Zm.86-15.39c-.347 0-.64-.12-.88-.36s-.36-.527-.36-.86c0-.32.12-.6.36-.84s.533-.36.88-.36c.353 0 .65.117.89.35.24.233.36.51.36.83 0 .347-.12.64-.36.88s-.537.36-.89.36Zm9.15 15.51c-1.14 0-2.017-.32-2.63-.96-.613-.64-.92-1.53-.92-2.67V43h1.7v14.16c0 .753.177 1.327.53 1.72.353.387.88.58 1.58.58.447 0 .83-.07 1.15-.21l.12 1.41a4.43 4.43 0 0 1-1.53.27Zm9.02-1.51a5.5 5.5 0 0 0 2.17-.42 4.49 4.49 0 0 0 1.7-1.24l.96 1.1a5.43 5.43 0 0 1-2.09 1.54c-.833.353-1.753.53-2.76.53-1.3 0-2.453-.277-3.46-.83a5.973 5.973 0 0 1-2.35-2.29c-.56-.98-.84-2.083-.84-3.31 0-1.233.267-2.34.8-3.32a5.888 5.888 0 0 1 2.22-2.28c.947-.54 2.02-.81 3.22-.81 1.12 0 2.133.257 3.04.77.9.507 1.62 1.217 2.16 2.13.533.913.817 1.953.85 3.12l-10.37 2.02c.32 1.02.9 1.823 1.74 2.41.84.587 1.843.88 3.01.88Zm-.43-9.87c-.88 0-1.667.203-2.36.61-.7.413-1.247.983-1.64 1.71-.387.727-.58 1.563-.58 2.51 0 .24.007.413.02.52l8.9-1.72c-.187-1.06-.673-1.93-1.46-2.61-.787-.68-1.747-1.02-2.88-1.02Zm11.16 1.11c.4-.853.997-1.493 1.79-1.92.793-.433 1.773-.65 2.94-.65v1.65l-.41-.02c-1.327 0-2.367.407-3.12 1.22-.753.82-1.13 1.967-1.13 3.44v6.43h-1.7V48.18h1.63v2.48Zm21.53-5.12h-3.41v13.73h3.41v1.54H75v-1.54h3.41V45.54H75v-1.53h8.57v1.53Zm19.17 2.55c1.587 0 2.833.457 3.74 1.37.9.907 1.35 2.25 1.35 4.03v7.32h-1.7v-7.15c0-1.313-.317-2.313-.95-3-.633-.693-1.527-1.04-2.68-1.04-1.307 0-2.337.407-3.09 1.22-.753.807-1.13 1.92-1.13 3.34v6.63h-1.7v-7.15c0-1.313-.317-2.313-.95-3-.633-.693-1.533-1.04-2.7-1.04-1.3 0-2.33.407-3.09 1.22-.76.807-1.14 1.92-1.14 3.34v6.63H87V48.18h1.63v2.31a4.584 4.584 0 0 1 1.87-1.78c.8-.413 1.72-.62 2.76-.62 1.06 0 1.977.223 2.75.67.78.447 1.36 1.11 1.74 1.99a4.888 4.888 0 0 1 2.01-1.95c.867-.473 1.86-.71 2.98-.71Zm25.47 0c1.58 0 2.823.457 3.73 1.37.907.907 1.36 2.25 1.36 4.03v7.32h-1.71v-7.15c0-1.313-.317-2.313-.95-3-.627-.693-1.517-1.04-2.67-1.04-1.313 0-2.347.407-3.1 1.22-.753.807-1.13 1.92-1.13 3.34v6.63h-1.7v-7.15c0-1.313-.317-2.313-.95-3-.633-.693-1.533-1.04-2.7-1.04-1.293 0-2.32.407-3.08 1.22-.76.807-1.14 1.92-1.14 3.34v6.63h-1.71V48.18h1.64v2.31a4.586 4.586 0 0 1 1.87-1.78c.8-.413 1.72-.62 2.76-.62 1.053 0 1.97.223 2.75.67.773.447 1.353 1.11 1.74 1.99a4.825 4.825 0 0 1 2-1.95c.873-.473 1.87-.71 2.99-.71Zm14.93 12.84c-1.22 0-2.317-.277-3.29-.83a6.049 6.049 0 0 1-2.31-2.29c-.56-.98-.84-2.083-.84-3.31 0-1.233.28-2.34.84-3.32a5.978 5.978 0 0 1 2.31-2.28c.973-.54 2.07-.81 3.29-.81 1.213 0 2.307.27 3.28.81a5.906 5.906 0 0 1 2.3 2.28c.547.98.82 2.087.82 3.32 0 1.227-.273 2.33-.82 3.31a5.975 5.975 0 0 1-2.3 2.29c-.973.553-2.067.83-3.28.83Zm0-1.51c.893 0 1.697-.207 2.41-.62a4.25 4.25 0 0 0 1.67-1.74c.4-.747.6-1.6.6-2.56s-.2-1.817-.6-2.57a4.25 4.25 0 0 0-1.67-1.74c-.713-.407-1.517-.61-2.41-.61-.9 0-1.707.203-2.42.61a4.396 4.396 0 0 0-1.68 1.74c-.407.753-.61 1.61-.61 2.57 0 .96.203 1.813.61 2.56a4.396 4.396 0 0 0 1.68 1.74c.713.413 1.52.62 2.42.62Zm16.39-11.33c1.18 0 2.25.267 3.21.8a5.828 5.828 0 0 1 2.26 2.27c.547.973.82 2.087.82 3.34 0 1.247-.273 2.357-.82 3.33a5.81 5.81 0 0 1-2.26 2.28c-.96.547-2.03.82-3.21.82-1.06 0-2.01-.223-2.85-.67a5.205 5.205 0 0 1-2.02-1.95v2.5h-1.64V43h1.71v7.58a5.272 5.272 0 0 1 2.03-1.86c.82-.42 1.743-.63 2.77-.63Zm-.12 11.33c.88 0 1.68-.207 2.4-.62a4.296 4.296 0 0 0 1.69-1.74c.407-.747.61-1.6.61-2.56s-.203-1.817-.61-2.57a4.296 4.296 0 0 0-1.69-1.74c-.72-.407-1.52-.61-2.4-.61-.9 0-1.703.203-2.41.61a4.317 4.317 0 0 0-1.68 1.74c-.413.753-.62 1.61-.62 2.57 0 .96.207 1.813.62 2.56A4.317 4.317 0 0 0 157 58.8c.707.413 1.51.62 2.41.62Zm9.89 1.39V48.18h1.7v12.63h-1.7Zm.86-15.39c-.353 0-.65-.12-.89-.36s-.36-.527-.36-.86c0-.32.12-.6.36-.84s.537-.36.89-.36.65.117.89.35c.24.233.36.51.36.83 0 .347-.12.64-.36.88s-.537.36-.89.36Zm9.14 15.51c-1.133 0-2.007-.32-2.62-.96-.62-.64-.93-1.53-.93-2.67V43h1.71v14.16c0 .753.173 1.327.52 1.72.353.387.883.58 1.59.58.447 0 .83-.07 1.15-.21l.12 1.41c-.493.18-1.007.27-1.54.27Zm3.87-.12V48.18h1.7v12.63h-1.7Zm.86-15.39c-.353 0-.65-.12-.89-.36s-.36-.527-.36-.86c0-.32.12-.6.36-.84s.537-.36.89-.36.65.117.89.35c.24.233.36.51.36.83 0 .347-.12.64-.36.88s-.537.36-.89.36Zm10.99 14c.787 0 1.513-.14 2.18-.42a4.51 4.51 0 0 0 1.69-1.24l.96 1.1a5.433 5.433 0 0 1-2.09 1.54c-.833.353-1.753.53-2.76.53-1.293 0-2.447-.277-3.46-.83a5.972 5.972 0 0 1-2.35-2.29c-.56-.98-.84-2.083-.84-3.31 0-1.233.27-2.34.81-3.32a5.792 5.792 0 0 1 2.22-2.28c.94-.54 2.01-.81 3.21-.81 1.12 0 2.133.257 3.04.77.9.507 1.62 1.217 2.16 2.13.533.913.817 1.953.85 3.12l-10.37 2.02c.32 1.02.9 1.823 1.74 2.41.84.587 1.843.88 3.01.88Zm-.43-9.87c-.88 0-1.667.203-2.36.61-.7.413-1.243.983-1.63 1.71-.393.727-.59 1.563-.59 2.51 0 .24.007.413.02.52l8.91-1.72c-.193-1.06-.683-1.93-1.47-2.61-.78-.68-1.74-1.02-2.88-1.02Zm15.96-1.46c1.587 0 2.847.46 3.78 1.38.94.92 1.41 2.26 1.41 4.02v7.32h-1.71v-7.15c0-1.313-.327-2.313-.98-3-.66-.693-1.597-1.04-2.81-1.04-1.36 0-2.437.407-3.23 1.22-.793.807-1.19 1.92-1.19 3.34v6.63h-1.7V48.18h1.63v2.33a4.812 4.812 0 0 1 1.93-1.79c.827-.42 1.783-.63 2.87-.63Z" fill="#FFFBFB"/></g><defs><clipPath id="a"><path fill="#fff" d="M0 0h216v61H0z"/></clipPath></defs></svg>